<svg width="140" height="160" viewBox="0 0 140 160" xmlns="http://www.w3.org/2000/svg">
  <!-- Container body -->
  <rect x="10" y="30" width="120" height="120" rx="10" fill="#ffebee" stroke="#F44336" stroke-width="4"/>
  
  <!-- Container top lid -->
  <rect x="5" y="20" width="130" height="20" rx="5" fill="#F44336"/>
  
  <!-- Lid decoration -->
  <ellipse cx="70" cy="30" rx="30" ry="5" fill="#D32F2F"/>
  
  <!-- Animal decorations -->
  <!-- Paw prints -->
  <circle cx="30" cy="60" r="5" fill="#FFCDD2"/>
  <circle cx="25" cy="55" r="2" fill="#FFCDD2"/>
  <circle cx="35" cy="55" r="2" fill="#FFCDD2"/>
  <circle cx="25" cy="65" r="2" fill="#FFCDD2"/>
  <circle cx="35" cy="65" r="2" fill="#FFCDD2"/>
  
  <circle cx="60" cy="90" r="5" fill="#FFCDD2"/>
  <circle cx="55" cy="85" r="2" fill="#FFCDD2"/>
  <circle cx="65" cy="85" r="2" fill="#FFCDD2"/>
  <circle cx="55" cy="95" r="2" fill="#FFCDD2"/>
  <circle cx="65" cy="95" r="2" fill="#FFCDD2"/>
  
  <circle cx="100" cy="70" r="5" fill="#FFCDD2"/>
  <circle cx="95" cy="65" r="2" fill="#FFCDD2"/>
  <circle cx="105" cy="65" r="2" fill="#FFCDD2"/>
  <circle cx="95" cy="75" r="2" fill="#FFCDD2"/>
  <circle cx="105" cy="75" r="2" fill="#FFCDD2"/>
  
  <!-- Feather -->
  <path d="M80,120 Q95,100 110,120" stroke="#FFCDD2" stroke-width="2" fill="none"/>
  <path d="M85,118 Q95,105 105,118" stroke="#FFCDD2" stroke-width="1" fill="none"/>
  <path d="M90,116 Q95,110 100,116" stroke="#FFCDD2" stroke-width="1" fill="none"/>
  
  <!-- Scale pattern -->
  <path d="M30,110 Q35,105 40,110" stroke="#FFCDD2" stroke-width="1" fill="none"/>
  <path d="M40,110 Q45,105 50,110" stroke="#FFCDD2" stroke-width="1" fill="none"/>
  <path d="M30,120 Q35,115 40,120" stroke="#FFCDD2" stroke-width="1" fill="none"/>
  <path d="M40,120 Q45,115 50,120" stroke="#FFCDD2" stroke-width="1" fill="none"/>
  
  <!-- Label -->
  <rect x="20" y="70" width="100" height="25" rx="5" fill="#FFFFFF" stroke="#F44336"/>
  <text x="70" y="85" font-family="Arial" font-size="11" font-weight="bold" text-anchor="middle" fill="#D32F2F">ANIMAL PRODUCTS</text>
</svg>
